<?xml version="1.0" encoding="UTF-8"?>
<svg xmlns="http://www.w3.org/2000/svg" width="512" height="512" viewBox="0 0 512 512">
  <defs>
    <linearGradient id="bg" x1="64" y1="24" x2="448" y2="488" gradientUnits="userSpaceOnUse">
      <stop stop-color="#4a3828"/>
      <stop offset="1" stop-color="#16110d"/>
    </linearGradient>
    <linearGradient id="metal" x1="168" y1="140" x2="340" y2="400" gradientUnits="userSpaceOnUse">
      <stop stop-color="#ffe7b8"/>
      <stop offset="0.42" stop-color="#e4b15c"/>
      <stop offset="1" stop-color="#a86d2c"/>
    </linearGradient>
  </defs>
  <rect width="512" height="512" fill="url(#bg)"/>
  <g fill="none" stroke="#f3d7a0" stroke-linecap="round">
    <path d="M372 206c34 26 34 74 0 100" stroke-width="16"/>
    <path d="M412 174c56 44 56 120 0 164" stroke-width="16" opacity="0.45"/>
  </g>
  <path d="M196 232v-34c0-40 26-70 60-70s60 30 60 70v34" fill="none" stroke="url(#metal)" stroke-width="28" stroke-linecap="round"/>
  <rect x="158" y="224" width="176" height="148" rx="32" fill="url(#metal)"/>
  <circle cx="246" cy="284" r="16" fill="#1a130e"/>
  <path d="M236 296h20v32a10 10 0 0 1-20 0z" fill="#1a130e"/>
</svg>